# xmcd
#
# Track frame offsets:
#	150
#	25254
#	44736
#	66645
#	79295
#	94956
#	107643
#	124241
#	139930
#	157995
#	167699
#	184318
#	204971
#	226011
#	247607
#
# Disc length: 3468 seconds
#
# Revision: 2240464015
# Processed by: cddbd v1.5.2PL0 Copyright (c) Steve Scherf et al.
# Submitted via: EZCDAudioConverter 8.0.2.1
#
DISCID=cc0d8a0f
DTITLE=QT. V.A - The Avalon Consort. Wedding: Essential Collection
DYEAR=2002
DGENRE=Classical Period
TTITLE0=Johann Pachelbel - Canon In D
TTITLE1=Richard Wagner - Bridal Chorus
TTITLE2=Johann Sebastian Bach - Jesu, Joy of Man's Desire
TTITLE3=Antonio Vivaldi - Spring (The Four Seasons)
TTITLE4=Charles Gounod - Ave Maria
TTITLE5=Marin Marais - Rondeau
TTITLE6=Sergei Rachmaninov - Rhapsody on a theme of Paganini (Var. 18)
TTITLE7=Antonio Vivaldi - Autumn (The Four Seasons)
TTITLE8=Johann Sebastian Bach - Air on the G String
TTITLE9=Christoph Willibald Von Gluck - Dance Of The Blessed Spirits
TTITLE10=Johannes Brahms - Waltz
TTITLE11=Johann Sebastian Bach - Arioso
TTITLE12=Antonio Vivaldi - Largo
TTITLE13=Franz Schubert - Ave Maria
TTITLE14=Clarke - Prince Of Denmark's March
EXTD=
EXTT0=
EXTT1=
EXTT2=
EXTT3=
EXTT4=
EXTT5=
EXTT6=
EXTT7=
EXTT8=
EXTT9=
EXTT10=
EXTT11=
EXTT12=
EXTT13=
EXTT14=
PLAYORDER=
